Coordinates
version=1
nRows=24
nColumns=24
inDegrees=yes

Units are S.I. units (second, meters, Newtons, ...)
Angles are in degrees.

endheader
time	pelvis_tilt	pelvis_list	pelvis_rotation	pelvis_tx	pelvis_ty	pelvis_tz	hip_flexion_r	hip_adduction_r	hip_rotation_r	knee_angle_r	ankle_angle_r	subtalar_angle_r	mtp_angle_r	hip_flexion_l	hip_adduction_l	hip_rotation_l	knee_angle_l	ankle_angle_l	subtalar_angle_l	mtp_angle_l	lumbar_extension	lumbar_bending	lumbar_rotation
      1.74150000	      0.11643324	      5.68660843	     -0.02602135	      1.44037698	      1.02055204	      0.29278650	     13.81019296	     -5.40814491	     -0.80119913	    -62.13017395	      4.99484467	    -16.29856224	      1.91186213	      4.92865975	     10.79504605	      2.75253645	     -8.28971237	      0.61425134	    -16.82805721	      2.82620231	     -0.67925418	     -6.71772609	      3.66729855
      1.74566667	      0.07497952	      5.57667135	      0.28606292	      1.44513550	      1.02103443	      0.29218994	     14.29681584	     -5.30856577	     -1.02091986	    -61.64305281	      5.14330094	    -16.34118045	      1.88370867	      4.51582226	     10.70523506	      3.06851323	     -8.04072479	      0.71681528	    -16.70962704	      2.81121599	     -0.66837787	     -6.58907159	      3.60408213
      1.74983333	      0.03963868	      5.47085482	      0.59395855	      1.44985035	      1.02148512	      0.29161279	     14.77502435	     -5.21398576	     -1.22755947	    -61.13659185	      5.28249811	    -16.41268634	      1.84887297	      4.09044872	     10.61557240	      3.40670739	     -7.76768847	      0.80537918	    -16.63315506	      2.79323095	     -0.66781133	     -6.46329582	      3.43119854
      1.75400000	      0.03233518	      5.37666887	      0.87327146	      1.45456668	      1.02194098	      0.29106162	     15.22330601	     -5.13282947	     -1.40672265	    -60.60744647	      5.36939432	    -16.48911881	      1.76177115	      3.61723580	     10.53952325	      3.80026488	     -7.44701438	      0.87415726	    -16.71989385	      2.74132721	     -0.69446446	     -6.34974958	      3.03875078
      1.75816667	      0.01078596	      5.29201197	      1.16524333	      1.45921220	      1.02233964	      0.29052568	     15.68128199	     -5.06848031	     -1.59427115	    -60.06465133	      5.52450176	    -16.54230120	      1.63879816	      3.17890054	     10.46472065	      4.15778003	     -7.15370989	      0.88656853	    -16.74158195	      2.66936999	     -0.71735853	     -6.26682024	      2.78909966
      1.76233333	     -0.01723592	      5.19573216	      1.44656528	      1.46394223	      1.02271321	      0.28999582	     16.13127617	     -4.99644859	     -1.77690999	    -59.48563073	      5.61126040	    -16.59474285	      1.54934165	      2.74729806	     10.37199759	      4.48670235	     -6.87521108	      0.98483512	    -16.70655135	      2.61925232	     -0.71629061	     -6.14983337	      2.61040815
      1.76650000	     -0.04785296	      5.10226245	      1.73360126	      1.46858595	      1.02304022	      0.28948647	     16.57982069	     -4.93025333	     -1.95983376	    -58.88671481	      5.71452950	    -16.63704276	      1.46726758	      2.33710579	     10.27751009	      4.81119984	     -6.61738473	      1.06980390	    -16.68110102	      2.57148190	     -0.72369860	     -6.04645790	      2.42239747
      1.77066667	     -0.08138085	      5.03136471	      1.99876246	      1.47323975	      1.02332016	      0.28901647	     17.03577327	     -4.89069917	     -2.12097619	    -58.28570274	      5.85700216	    -16.65657125	      1.43915440	      1.93187058	     10.19834633	      5.07293563	     -6.35424998	      1.13078072	    -16.56104196	      2.55732333	     -0.72343624	     -5.96020022	      2.35004176
      1.77483333	     -0.09211954	      4.93366455	      2.27309176	      1.47792005	      1.02363933	      0.28855426	     17.43914341	     -4.81752380	     -2.27859922	    -57.62351692	      5.91920502	    -16.70584026	      1.34361664	      1.48170907	     10.09005636	      5.43553816	     -6.05966863	      1.19044200	    -16.63098721	      2.50049062	     -0.74780217	     -5.86764945	      2.00539298
      1.77900000	     -0.13488623	      4.85589823	      2.53042487	      1.48257058	      1.02385285	      0.28810861	     17.88178623	     -4.77729639	     -2.43144530	    -56.96665536	      6.03473150	    -16.70079913	      1.31752424	      1.10366181	      9.99749384	      5.69349250	     -5.83151654	      1.27925454	    -16.52672616	      2.48692140	     -0.73633101	     -5.77081124	      1.95611091
      1.78316667	     -0.12491296	      4.78292244	      2.78586850	      1.48722805	      1.02412120	      0.28769996	     18.25004630	     -4.73561425	     -2.57046427	    -56.27049580	      6.09315752	    -16.70416372	      1.24029923	      0.64001938	      9.90399104	      6.01858282	     -5.54196752	      1.34933505	    -16.58822166	      2.44089316	     -0.77410808	     -5.70108379	      1.66824993
      1.78733333	     -0.15195474	      4.70468192	      3.04083444	      1.49185345	      1.02432104	      0.28729328	     18.65032704	     -4.69148317	     -2.70204364	    -55.55243707	      6.19159536	    -16.70244394	      1.13902777	      0.22729055	      9.80183710	      6.32839812	     -5.26233706	      1.36854962	    -16.60143204	      2.37499829	     -0.78854970	     -5.62740220	      1.47502677
      1.79150000	     -0.18898566	      4.62794277	      3.28325285	      1.49651201	      1.02446319	      0.28692655	     19.05633472	     -4.64890385	     -2.81951875	    -54.81676020	      6.27121152	    -16.65427458	      1.10944962	     -0.15546546	      9.69506819	      6.57322451	     -5.03063899	      1.46580477	    -16.51305376	      2.35699575	     -0.77381448	     -5.54829989	      1.41248309
      1.79566667	     -0.17753626	      4.56784369	      3.51949498	      1.50111271	      1.02463600	      0.28656706	     19.40371581	     -4.62456915	     -2.92923576	    -54.06954389	      6.32931732	    -16.62304055	      1.04273656	     -0.60663932	      9.60205834	      6.87379890	     -4.75669257	      1.54107501	    -16.54417728	      2.31271462	     -0.83069701	     -5.48464314	      1.16955967
      1.79983333	     -0.21307870	      4.51145043	      3.75093328	      1.50572584	      1.02471911	      0.28624320	     19.79375519	     -4.60393555	     -3.02216205	    -53.30066283	      6.39970515	    -16.56559115	      0.97506668	     -0.99636661	      9.51038323	      7.15495359	     -4.50196771	      1.59055456	    -16.54849003	      2.26009050	     -0.83891860	     -5.43327704	      1.00439249
      1.80400000	     -0.25420948	      4.46054596	      3.95946350	      1.51036244	      1.02475409	      0.28594955	     20.18706407	     -4.58793845	     -3.09598542	    -52.51812714	      6.46508523	    -16.49210996	      0.96079910	     -1.38055334	      9.41849407	      7.35782212	     -4.23926030	      1.67484628	    -16.43612313	      2.25015079	     -0.82051675	     -5.38003190	      0.97105677
      1.80816667	     -0.23768257	      4.39491215	      4.17617041	      1.51499903	      1.02487316	      0.28565931	     20.48606296	     -4.55299172	     -3.17507746	    -51.67654316	      6.49268898	    -16.41402057	      0.91824083	     -1.83097320	      9.30571582	      7.64044896	     -3.97727009	      1.74729948	    -16.48576671	      2.21102812	     -0.87204041	     -5.31918892	      0.76345058
      1.81233333	     -0.26561641	      4.34794512	      4.39362332	      1.51960843	      1.02487010	      0.28537214	     20.83861608	     -4.54724382	     -3.25075729	    -50.84372583	      6.54596352	    -16.30734633	      0.88711138	     -2.22379989	      9.21260772	      7.89341588	     -3.72713258	      1.81732826	    -16.47395784	      2.17574303	     -0.87615942	     -5.27813283	      0.62576763
      1.81650000	     -0.30572908	      4.30188656	      4.60731219	      1.52421142	      1.02483442	      0.28511917	     21.19187124	     -4.53923410	     -3.31101450	    -49.98557080	      6.59193521	    -16.19244807	      0.87613589	     -2.58772005	      9.11540726	      8.11181803	     -3.50565608	      1.89465087	    -16.38708438	      2.16072505	     -0.87266398	     -5.24062858	      0.56050108
      1.82066667	     -0.30186178	      4.25676090	      4.81423335	      1.52881435	      1.02482840	      0.28486727	     21.48589053	     -4.53166649	     -3.37029294	    -49.09985848	      6.59835144	    -16.08601219	      0.85770492	     -3.02393270	      9.01313681	      8.37438233	     -3.23163417	      1.97615881	    -16.40304645	      2.12205199	     -0.92723911	     -5.20104969	      0.35327839
      1.82483333	     -0.34716422	      4.21648938	      5.01136965	      1.53345722	      1.02472930	      0.28464090	     21.81996682	     -4.53030805	     -3.41336447	    -48.19524117	      6.62154998	    -15.93551083	      0.85443479	     -3.38425726	      8.91760272	      8.57035358	     -3.00913803	      2.06356161	    -16.32467613	      2.10803982	     -0.90331802	     -5.16849678	      0.30739226
      1.82900000	     -0.36258903	      4.18064767	      5.20231072	      1.53804263	      1.02462903	      0.28442053	     22.11783625	     -4.53294101	     -3.45153075	    -47.27176265	      6.62860987	    -15.78294599	      0.85543653	     -3.77915307	      8.82190292	      8.77190246	     -2.77019574	      2.16286571	    -16.25989737	      2.09248262	     -0.92792529	     -5.13673805	      0.21458700
      1.83316667	     -0.40171708	      4.13744467	      5.39946085	      1.54266919	      1.02448712	      0.28421030	     22.41912266	     -4.53170047	     -3.49586816	    -46.31445552	      6.61454539	    -15.63759088	      0.86089964	     -4.14448486	      8.71700532	      8.97712215	     -2.54433815	      2.26866417	    -16.20106434	      2.07824411	     -0.92043818	     -5.10180417	      0.11366714
      1.83733333	     -0.42735506	      4.11294539	      5.58358759	      1.54724885	      1.02431221	      0.28401573	     22.70900580	     -4.55021251	     -3.52836882	    -45.35337152	      6.60302445	    -15.47077897	      0.87159682	     -4.52844841	      8.62878448	      9.17171036	     -2.30711565	      2.37462834	    -16.13290970	      2.06526350	     -0.94401076	     -5.09096152	      0.01213552
